# AST/ASF file generated using VICON BodyLanguage
# -----------------------------------------------
:version 1.10
:name VICON
:units
  mass 1.0
  length 0.45
  angle deg
:documentation
   .ast/.asf automatically generated from VICON data using
   VICON BodyBuilder and BodyLanguage model FoxedUp or BRILLIANT.MOD
:root
   order TX TY TZ RX RY RZ
   axis XYZ
   position 0 0 0  
   orientation 0 0 0 
:bonedata
  begin
     id 1 
     name lhipjoint
     direction 0.643824 -0.71708 0.266994 
     length 2.52133 
     axis 0 0 0  XYZ
  end
  begin
     id 2 
     name lfemur
     direction 0.34202 -0.939693 0  
     length 7.51824  
     axis 0 0 20  XYZ
    dof rx ry rz
    limits (-160.0 20.0)
           (-70.0 70.0)
           (-60.0 70.0)
  end
  begin
     id 3 
     name ltibia
     direction 0.34202 -0.939693 0   
     length 7.3685   
     axis 0 0 20   XYZ
    dof rx
    limits (-10.0 170.0)
  end
  begin
     id 4 
     name lfoot
     direction 0.105419 -0.289636 0.951314   
     length 2.20972   
     axis -90 7.62852e-016 20   XYZ
    dof rx rz
    limits (-45.0 90.0)
           (-70.0 20.0)
  end
  begin
     id 5 
     name ltoes
     direction 1.53549e-011 -4.21833e-011 1   
     length 1.10139   
     axis -90 7.62852e-016 20   XYZ
    dof rx
    limits (-90.0 20.0)
  end
  begin
     id 6 
     name rhipjoint
     direction -0.608823 -0.743445 0.276811   
     length 2.43192  
     axis 0 0 0  XYZ 
  end
  begin
     id 7 
     name rfemur
     direction -0.34202 -0.939693 0   
     length 7.69715   
     axis 0 0 -20   XYZ
    dof rx ry rz
    limits (-160.0 20.0)
           (-70.0 70.0)
           (-70.0 60.0)
  end
  begin
     id 8 
     name rtibia
     direction -0.34202 -0.939693 0   
     length 7.44924   
     axis 0 0 -20   XYZ
    dof rx
    limits (-10.0 170.0)
 end
 begin
     id 9 
     name rfoot
     direction -0.103614 -0.284677 0.953007   
     length 2.22623  
     axis -90 -7.62852e-016 -20   XYZ
    dof rx rz
    limits (-45.0 90.0)
           (-20.0 70.0)
  end
  begin
     id 10 
     name rtoes
     direction -1.53537e-011 -4.22026e-011 1   
     length 1.11   
     axis -90 -7.62852e-016 -20   XYZ
    dof rx
    limits (-90.0 20.0)
  end
  begin
     id 11 
     name lowerback
     direction -0.0101212 0.99662 -0.0815298   
     length 2.08277   
     axis 0 0 0   XYZ
    dof rx ry rz
    limits (-20.0 45.0)
           (-30.0 30.0)
           (-30.0 30.0)
  end
  begin
     id 12 
     name upperback
     direction 0.024314 0.999591 -0.0150645   
     length 2.08524   
     axis 0 0 0   XYZ
    dof rx ry rz
    limits (-20.0 45.0)
           (-30.0 30.0)
           (-30.0 30.0)
  end
  begin
     id 13 
     name thorax
     direction 0.0285959 0.999323 0.0231357   
     length 2.09645   
     axis 0 0 0   XYZ
    dof rx ry rz
    limits (-20.0 45.0)
           (-30.0 30.0)
           (-30.0 30.0)
  end
  begin
     id 14 
     name lowerneck
     direction -0.065512 0.979301 0.191515   
     length 1.63798   
     axis 0 0 0   XYZ
    dof rx ry rz
    limits (-20.0 45.0)
           (-30.0 30.0)
           (-30.0 30.0)
  end
  begin
     id 15 
     name upperneck
     direction 0.0498479 0.98191 -0.182667   
     length 1.68731   
     axis 0 0 0   XYZ
    dof rx ry rz
    limits (-20.0 45.0)
           (-30.0 30.0)
           (-30.0 30.0)
  end
  begin
     id 16
     name head
     direction 0.0230358 0.996257 -0.0833175  
     length 1.69785  
     axis 0 0 0   XYZ
    dof rx ry rz
    limits (-20.0 45.0)
           (-30.0 30.0)
           (-30.0 30.0)
  end
  begin
     id 17 
     name lclavicle
     direction 0.967963 0.201165 -0.150269  
     length 3.63976  
     axis 0 0 0   XYZ
    dof ry rz
    limits (-20.0 10.0)
           (0.0 20.0)
  end
  begin
     id 18 
     name lhumerus
     direction 1 -4.48954e-011 -2.92837e-028   
     length 5.32462   
     axis 180 -30 -90   XYZ
    dof rx ry rz
    limits (-60.0 90.0)
           (-90.0 90.0)
           (-90.0 90.0)
  end
  begin
     id 19
     name lradius
     direction 1 -4.48958e-011 -6.39511e-027   
     length 3.48402   
     axis 180 -30 -90   XYZ
    dof rx
    limits (-10.0 170.0)
  end
  begin
     id 20
     name lwrist
     direction 1 -4.48975e-011 -1.1413e-026   
     length 1.74201   
     axis 6.88575e-015 90 90   XYZ
    dof ry
    limits (-180.0 0.0)
 end
  begin
     id 21 
     name lhand
     direction 1 -4.48899e-011 -2.28192e-026   
     length 0.572476   
     axis 1.45643e-014 90 90   XYZ
    dof rx rz
    limits (-90.0 90.0)
           (-45.0 45.0)
  end
  begin
     id 22 
     name lfingers
     direction 1 -4.49155e-011 -4.5684e-026   
     length 0.461545   
     axis 2.91283e-014 90 90   XYZ
    dof rx
    limits (0.0 90.0)
  end
  begin
     id 23
     name lthumb
     direction 0.707107 -6.34943e-011 0.707107   
     length 0.662688   
     axis -90 45 -2.25915e-014   XYZ
    dof rx rz
    limits (-45.0 45.0)
           (-45.0 45.0)
  end
  begin
     id 24 
     name rclavicle
     direction -0.964103 0.264019 -0.0282629   
     length 3.54491  
     axis 0 0 0   XYZ 
    dof ry rz
    limits (-10.0 20.0)
           (-20.0 0.0)
  end
  begin
     id 25 
     name rhumerus
     direction -1 -4.48964e-011 -2.45032e-027  
     length 5.33589   
     axis 180 30 90   XYZ
    dof rx ry rz
    limits (-90.0 60.0)
           (-90.0 90.0)
           (-90.0 90.0)
  end
  begin
     id 26 
     name rradius
     direction -1 -4.48987e-011 -1.55093e-027   
     length 3.64134   
     axis 180 30 90   XYZ
    dof rx
    limits (-10.0 170.0)
  end
  begin
     id 27 
     name rwrist
     direction -1 -4.4897e-011 -1.14128e-026   
     length 1.82067   
     axis 6.88575e-015 -90 -90   XYZ
    dof ry
    limits (-180.0 0.0)
  end
  begin
     id 28
     name rhand
     direction -1 -4.49021e-011 -2.28301e-026   
     length 0.734811   
     axis 1.45643e-014 -90 -90   XYZ
    dof rx rz
    limits (-90.0 90.0)
           (-45.0 45.0)
  end
  begin
     id 29
     name rfingers
     direction -1 -4.48862e-011 -4.56319e-026   
     length 0.592424   
     axis 2.91283e-014 -90 -90   XYZ
    dof rx
    limits (0.0 90.0)
  end
  begin
     id 30
     name rthumb
     direction -0.707107 -6.34978e-011 0.707107   
     length 0.850605   
     axis -90 -45 2.25915e-014   XYZ
    dof rx rz
    limits (-45.0 45.0)
           (-45.0 45.0)
  end
:hierarchy
  begin
    root lhipjoint rhipjoint lowerback
    lhipjoint lfemur
    lfemur ltibia
    ltibia lfoot
    lfoot ltoes
    rhipjoint rfemur
    rfemur rtibia
    rtibia rfoot
    rfoot rtoes
    lowerback upperback
    upperback thorax
    thorax lowerneck lclavicle rclavicle
    lowerneck upperneck
    upperneck head
    lclavicle lhumerus
    lhumerus lradius
    lradius lwrist
    lwrist lhand lthumb
    lhand lfingers
    rclavicle rhumerus
    rhumerus rradius
    rradius rwrist
    rwrist rhand rthumb
    rhand rfingers
  end

#!OML:ASF F:\VICON\USERDATA\INSTALL\rory3\rory3.ASF
:FULLY-SPECIFIED
:DEGREES
1
root 0.83387 17.997 -0.81163 2.9077 -28.7281 0.64953
lowerback 0.205121 0.445606 -2.90584
upperback -0.065865 0.587713 0.854908
thorax -0.220752 0.298409 2.50353
lowerneck -16.689 1.23624 -8.2405
upperneck 39.8751 4.7877 -0.521229
head 17.305 0.445309 2.0853
rclavicle -2.13694e-015 1.78906e-015
rhumerus -7.90882 34.9942 -71.6107
rradius 110.486
rwrist 8.91451
rhand -19.2448 20.3193
rfingers 7.12502
rthumb 7.06884 -9.54264
lclavicle -2.13694e-015 1.78906e-015
lhumerus -31.3844 -30.9087 100.473
lradius 83.0222
lwrist 14.5355
lhand -18.088 23.2185
lfingers 7.12502
lthumb 8.1854 53.0399
rfemur -10.4174 2.83009 11.4148
rtibia 22.224
rfoot -14.9204 -11.985
rtoes 3.81438
lfemur -4.066 0.989317 -22.6912
ltibia 15.7967
lfoot -10.1911 5.35934
ltoes -11.2271
2
root 0.830619 17.9963 -0.808693 2.81964 -28.6469 0.703735
lowerback 0.347592 0.431748 -3.03034
upperback -0.0996641 0.564317 0.883273
thorax -0.335285 0.28928 2.60152
lowerneck -16.974 1.25769 -7.94566
upperneck 40.0895 4.84209 -0.710736
head 17.5136 0.467506 1.96713
rclavicle -6.71644e-014 1.19271e-015
rhumerus -8.84498 33.9606 -72.4408
rradius 110.245
rwrist 8.26131
rhand -19.4757 19.4186
rfingers 7.12502
rthumb 6.84593 -10.4507
lclavicle -6.71644e-014 1.19271e-015
lhumerus -31.4768 -30.7155 100.557
lradius 83.6102
lwrist 14.2436
lhand -18.4944 23.2359
lfingers 7.12502
lthumb 7.79322 53.0722
rfemur -10.3127 2.76501 11.3746
rtibia 22.2425
rfoot -14.9681 -11.9601
rtoes 3.701
lfemur -3.93917 0.982155 -22.7297
ltibia 15.7087
lfoot -10.1553 5.25424
ltoes -10.9816
3
root 0.82791 17.9961 -0.808616 2.76171 -28.5634 0.707966
lowerback 0.5609 0.416618 -3.22007
upperback -0.172204 0.536143 1.00463
thorax -0.530394 0.280274 2.83144
lowerneck -16.4476 1.16683 -8.37062
upperneck 39.6689 4.67337 -0.497034
head 17.1311 0.398983 2.0897
rclavicle 3.35698e-014 -1.98785e-015
rhumerus -9.75384 32.9978 -73.0839
rradius 109.942
rwrist 7.71396
rhand -19.6205 18.5505
rfingers 7.12502
rthumb 6.70618 -11.3233
lclavicle 3.35698e-014 -1.98785e-015
lhumerus -31.5704 -30.4458 100.743
lradius 84.1881
lwrist 13.9755
lhand -18.6458 23.3922
lfingers 7.12502
lthumb 7.64702 53.2339
rfemur -10.2139 2.71126 11.3856
rtibia 22.2269
rfoot -14.9721 -11.9564
rtoes 3.09548
lfemur -3.879 0.988191 -22.7161
ltibia 15.7087
lfoot -10.1459 5.15873
ltoes -11.019
4
root 0.825414 17.9965 -0.809416 2.75942 -28.4936 0.712656
lowerback 0.644837 0.390974 -3.34798
upperback -0.204665 0.498226 1.07322
thorax -0.609792 0.263825 2.97386
lowerneck -16.2427 1.12871 -8.47238
upperneck 39.4639 4.59563 -0.458588
head 16.9664 0.372935 2.10315
rclavicle 5.42806e-014 -1.19271e-015
rhumerus -10.5931 31.9842 -73.7688
rradius 109.582
rwrist 7.32645
rhand -19.7531 18.0257
rfingers 7.12502
rthumb 6.57816 -11.8521
lclavicle 5.42806e-014 -1.19271e-015
lhumerus -31.5551 -30.2086 100.798
lradius 84.7949
lwrist 13.8367
lhand -18.8266 23.5658
lfingers 7.12502
lthumb 7.47257 53.4138
rfemur -10.1829 2.75452 11.3984
rtibia 22.2178
rfoot -15.0919 -12.0311
rtoes 3.06938
lfemur -3.88057 1.00898 -22.7074
ltibia 15.7097
lfoot -10.158 5.09225
ltoes -11.2316
5
root 0.823323 17.9972 -0.807261 2.79539 -28.4649 0.697781
lowerback 0.607756 0.378507 -3.35594
upperback -0.204736 0.482797 1.08365
thorax -0.588049 0.255748 2.98953
lowerneck -16.1805 1.10908 -8.47252
upperneck 39.3691 4.52284 -0.388221
head 16.8982 0.360217 2.11891
rclavicle 5.22431e-014 9.93923e-016
rhumerus -11.3849 30.8556 -74.5801
rradius 109.157
rwrist 7.06872
rhand -19.702 17.6174
rfingers 7.12502
rthumb 6.62754 -12.2589
lclavicle 5.22431e-014 9.93923e-016
lhumerus -31.4911 -30.0691 100.785
lradius 85.419
lwrist 13.649
lhand -19.2321 23.752
lfingers 7.12502
lthumb 7.08112 53.6135
rfemur -10.1925 2.75838 11.4223
rtibia 22.2128
rfoot -15.1673 -12.0628
rtoes 3.3976
lfemur -3.92531 0.973155 -22.6898
ltibia 15.7391
lfoot -10.1826 5.11392
ltoes -11.3914
6
root 0.821367 17.997 -0.806202 2.80781 -28.4113 0.670341
lowerback 0.618656 0.363408 -3.37119
upperback -0.206103 0.462367 1.12558
thorax -0.594484 0.245803 3.04151
lowerneck -16.0682 1.07215 -8.58122
upperneck 39.2336 4.44036 -0.28597
head 16.7933 0.334947 2.1643
rclavicle -6.33626e-016 -7.95139e-016
rhumerus -12.2103 29.6917 -75.348
rradius 108.696
rwrist 6.98329
rhand -19.6062 17.1392
rfingers 7.12502
rthumb 6.72002 -12.7342
lclavicle -6.33626e-016 -7.95139e-016
lhumerus -31.415 -29.9869 100.821
lradius 86.0679
lwrist 13.3276
lhand -19.643 24.0224
lfingers 7.12502
lthumb 6.68443 53.8969
rfemur -10.1734 2.6288 11.454
rtibia 22.2183
rfoot -15.1419 -11.9686
rtoes 3.48286
lfemur -3.9529 0.988147 -22.6483
ltibia 15.7857
lfoot -10.1928 5.03335
ltoes -11.3133
